# xmcd CD database file generated by Grip 2.95
# 
# Track frame offsets:
#       183
#       12828
#       23500
#       34728
#       46133
#       56575
#       68825
#       82968
#       96808
#       111000
#       121345
#       133825
#       154915
#       171630
#       185460
# 
# Disc length: 2631 seconds
# 
# Revision: 3
# Processed by: cddbd v1.4b41PL1 Copyright (c) Steve Scherf et al.
# Submitted via: Grip 2.95
# 
DISCID=c00a450f
DTITLE=Johnny Winter - Texas Blues - 1
DYEAR=1900
DGENRE=
TTITLE0=Livin' In The Blues
TTITLE1=Creepy
TTITLE2=Gangster Of Love
TTITLE3=The Guy You Left Behind
TTITLE4=Out Of Sight
TTITLE5=Parchman Farm
TTITLE6=Low Down Gal Of Mine
TTITLE7=Five After Four AM
TTITLE8=Ease My Pain
TTITLE9=32-20 Blues
TTITLE10=Bad News
TTITLE11=Goin' Down Slow
TTITLE12=Kindhearted Woman Blues
TTITLE13=Harlem Nocturne
TTITLE14=Livin' In The Blues (2)
EXTD=
EXTT0=
EXTT1=
EXTT2=
EXTT3=
EXTT4=
EXTT5=
EXTT6=
EXTT7=
EXTT8=
EXTT9=
EXTT10=
EXTT11=
EXTT12=
EXTT13=
EXTT14=
PLAYORDER=
